<svg viewBox="0 0 200 140" width="100%" style="max-height:120px" aria-hidden="true" xmlns="http://www.w3.org/2000/svg">
  <line x1="20" y1="12" x2="20" y2="128" stroke="var(--ink)" stroke-width="0.5" opacity="0.15"/>
  <line x1="60" y1="12" x2="60" y2="128" stroke="var(--ink)" stroke-width="0.5" opacity="0.15"/>
  <line x1="100" y1="12" x2="100" y2="128" stroke="var(--ink)" stroke-width="0.5" opacity="0.15"/>
  <line x1="140" y1="12" x2="140" y2="128" stroke="var(--ink)" stroke-width="0.5" opacity="0.15"/>
  <line x1="180" y1="12" x2="180" y2="128" stroke="var(--ink)" stroke-width="0.5" opacity="0.15"/>
  <line x1="12" y1="12" x2="188" y2="12" stroke="var(--ink)" stroke-width="0.5" opacity="0.15"/>
  <line x1="12" y1="41" x2="188" y2="41" stroke="var(--ink)" stroke-width="0.5" opacity="0.15"/>
  <line x1="12" y1="70" x2="188" y2="70" stroke="var(--ink)" stroke-width="0.5" opacity="0.15"/>
  <line x1="12" y1="99" x2="188" y2="99" stroke="var(--ink)" stroke-width="0.5" opacity="0.15"/>
  <line x1="12" y1="128" x2="188" y2="128" stroke="var(--ink)" stroke-width="0.5" opacity="0.15"/>

  <path d="M58 54 C78 28 122 28 142 54" fill="none" stroke="var(--ink)" stroke-width="1.2" stroke-linecap="round"/>
  <path d="M58 86 C78 112 122 112 142 86" fill="none" stroke="var(--ink)" stroke-width="1.2" stroke-linecap="round"/>
  <path d="M48 70 C72 40 128 40 152 70" fill="none" stroke="var(--ink)" stroke-width="1" opacity="0.18"/>
  <path d="M48 70 C72 100 128 100 152 70" fill="none" stroke="var(--ink)" stroke-width="1" opacity="0.18"/>
  <line x1="74" y1="70" x2="126" y2="70" stroke="var(--ink)" stroke-width="1.2"/>
  <line x1="100" y1="34" x2="100" y2="106" stroke="var(--ink)" stroke-width="1" stroke-dasharray="4 5" opacity="0.24"/>

  <circle cx="58" cy="70" r="16" fill="none" stroke="var(--ink)" stroke-width="1.2"/>
  <circle cx="142" cy="70" r="16" fill="none" stroke="var(--ink)" stroke-width="1.2"/>
  <text x="58" y="74" font-family="var(--mono)" font-size="11" fill="var(--ink-mute)" text-anchor="middle">+</text>
  <text x="142" y="74" font-family="var(--mono)" font-size="11" fill="var(--ink-mute)" text-anchor="middle">-</text>
  <text x="100" y="28" font-family="var(--mono)" font-size="9" fill="var(--ink-mute)" text-anchor="middle">V=0</text>

  <circle cx="74" cy="70" r="4.5" fill="var(--accent)" stroke="var(--ink)" stroke-width="1.5">
    <animate attributeName="cx" values="74;126" dur="4.2s" repeatCount="indefinite" calcMode="spline" keyTimes="0;1" keySplines="0.45 0 0.55 1"/>
    <animate attributeName="opacity" values="0;1;1;0" dur="4.2s" repeatCount="indefinite" keyTimes="0;0.15;0.85;1"/>
  </circle>
</svg>
