<svg viewBox="0 0 200 140" width="100%" style="max-height:120px" aria-hidden="true" xmlns="http://www.w3.org/2000/svg">
  <line x1="20" y1="12" x2="20" y2="128" stroke="var(--ink)" stroke-width="0.5" opacity="0.15"/>
  <line x1="60" y1="12" x2="60" y2="128" stroke="var(--ink)" stroke-width="0.5" opacity="0.15"/>
  <line x1="100" y1="12" x2="100" y2="128" stroke="var(--ink)" stroke-width="0.5" opacity="0.15"/>
  <line x1="140" y1="12" x2="140" y2="128" stroke="var(--ink)" stroke-width="0.5" opacity="0.15"/>
  <line x1="180" y1="12" x2="180" y2="128" stroke="var(--ink)" stroke-width="0.5" opacity="0.15"/>
  <line x1="12" y1="12" x2="188" y2="12" stroke="var(--ink)" stroke-width="0.5" opacity="0.15"/>
  <line x1="12" y1="41" x2="188" y2="41" stroke="var(--ink)" stroke-width="0.5" opacity="0.15"/>
  <line x1="12" y1="70" x2="188" y2="70" stroke="var(--ink)" stroke-width="0.5" opacity="0.15"/>
  <line x1="12" y1="99" x2="188" y2="99" stroke="var(--ink)" stroke-width="0.5" opacity="0.15"/>
  <line x1="12" y1="128" x2="188" y2="128" stroke="var(--ink)" stroke-width="0.5" opacity="0.15"/>

  <circle cx="58" cy="70" r="24" fill="none" stroke="var(--ink)" stroke-width="1.2"/>
  <circle cx="58" cy="70" r="16" fill="var(--accent)" opacity="0.12" stroke="none"/>
  <line x1="58" y1="70" x2="104" y2="70" stroke="var(--ink)" stroke-width="1" stroke-dasharray="4 4" opacity="0.25"/>
  <line x1="58" y1="70" x2="58" y2="46" stroke="var(--ink)" stroke-width="1" stroke-dasharray="4 4" opacity="0.25"/>
  <path d="M100 67 L108 70 L100 73" fill="none" stroke="var(--ink)" stroke-width="1.2"/>
  <text x="64" y="54" font-family="var(--mono)" font-size="10" fill="var(--ink-mute)">R</text>
  <text x="90" y="64" font-family="var(--mono)" font-size="10" fill="var(--ink-mute)">r</text>

  <line x1="118" y1="34" x2="118" y2="108" stroke="var(--ink)" stroke-width="1.2"/>
  <line x1="118" y1="108" x2="184" y2="108" stroke="var(--ink)" stroke-width="1.2"/>
  <line x1="140" y1="34" x2="140" y2="108" stroke="var(--ink)" stroke-width="1" stroke-dasharray="4 4" opacity="0.25"/>
  <path d="M118 108 L126 100 L134 92 L140 84 L150 92 L164 99 L178 102" fill="none" stroke="var(--ink)" stroke-width="1" opacity="0.22"/>
  <path d="M118 108 L140 108 L150 92 L164 99 L178 102" fill="none" stroke="var(--ink)" stroke-width="1"/>
  <path d="M118 108 L126 100 L134 92 L140 84 L150 92 L164 99 L178 102" fill="none" stroke="var(--accent)" stroke-width="1.5"/>
  <text x="146" y="28" font-family="var(--mono)" font-size="10" fill="var(--ink-mute)">E</text>
  <text x="174" y="122" font-family="var(--mono)" font-size="10" fill="var(--ink-mute)">r</text>

  <circle cx="70" cy="70" r="4.5" fill="var(--accent)" stroke="var(--ink)" stroke-width="1.5">
    <animate attributeName="cx" values="58;70;82;96;82;70;58" dur="4.6s" repeatCount="indefinite" calcMode="spline" keyTimes="0;0.18;0.36;0.5;0.64;0.82;1" keySplines="0.45 0 0.55 1;0.45 0 0.55 1;0.45 0 0.55 1;0.45 0 0.55 1;0.45 0 0.55 1;0.45 0 0.55 1"/>
  </circle>
</svg>
