<svg viewBox="0 0 200 140" width="100%" style="max-height:120px" aria-hidden="true" xmlns="http://www.w3.org/2000/svg">
  <line x1="20" y1="12" x2="20" y2="128" stroke="var(--ink)" stroke-width="0.5" opacity="0.15"/>
  <line x1="60" y1="12" x2="60" y2="128" stroke="var(--ink)" stroke-width="0.5" opacity="0.15"/>
  <line x1="100" y1="12" x2="100" y2="128" stroke="var(--ink)" stroke-width="0.5" opacity="0.15"/>
  <line x1="140" y1="12" x2="140" y2="128" stroke="var(--ink)" stroke-width="0.5" opacity="0.15"/>
  <line x1="180" y1="12" x2="180" y2="128" stroke="var(--ink)" stroke-width="0.5" opacity="0.15"/>
  <line x1="12" y1="12" x2="188" y2="12" stroke="var(--ink)" stroke-width="0.5" opacity="0.15"/>
  <line x1="12" y1="41" x2="188" y2="41" stroke="var(--ink)" stroke-width="0.5" opacity="0.15"/>
  <line x1="12" y1="70" x2="188" y2="70" stroke="var(--ink)" stroke-width="0.5" opacity="0.15"/>
  <line x1="12" y1="99" x2="188" y2="99" stroke="var(--ink)" stroke-width="0.5" opacity="0.15"/>
  <line x1="12" y1="128" x2="188" y2="128" stroke="var(--ink)" stroke-width="0.5" opacity="0.15"/>

  <g opacity="0.12" fill="none" stroke="var(--ink)" stroke-width="1">
    <line x1="28" y1="67" x2="172" y2="73"/>
    <line x1="100" y1="72" x2="100" y2="108"/>
    <path d="M84 108 L100 72 L116 108 Z"/>
  </g>

  <g>
    <line x1="30" y1="70" x2="170" y2="70" stroke="var(--ink)" stroke-width="1.5" stroke-linecap="round"/>
    <line x1="100" y1="70" x2="100" y2="108" stroke="var(--ink)" stroke-width="1.2"/>
    <path d="M82 108 L100 70 L118 108 Z" fill="none" stroke="var(--ink)" stroke-width="1.2"/>
    <line x1="78" y1="108" x2="122" y2="108" stroke="var(--ink)" stroke-width="1.2"/>

    <line x1="54" y1="60" x2="54" y2="86" stroke="var(--ink)" stroke-width="1.2"/>
    <rect x="42" y="86" width="24" height="22" fill="var(--ink)" stroke="var(--ink)" stroke-width="1.5"/>
    <text x="54" y="102" font-family="var(--mono)" font-size="10" fill="var(--bg-alt)" text-anchor="middle">40</text>

    <g>
      <line x1="142" y1="60" x2="142" y2="86" stroke="var(--ink)" stroke-width="1.2"/>
      <rect x="130" y="86" width="24" height="22" fill="var(--accent)" stroke="var(--ink)" stroke-width="1.5"/>
      <text x="142" y="102" font-family="var(--mono)" font-size="10" fill="var(--ink)" text-anchor="middle">20</text>
      <animateTransform attributeName="transform" type="translate" values="-14 0;10 0;-14 0" dur="4.6s" repeatCount="indefinite" calcMode="spline" keyTimes="0;0.5;1" keySplines="0.45 0 0.55 1;0.45 0 0.55 1"/>
    </g>
  </g>

  <line x1="54" y1="50" x2="100" y2="50" stroke="var(--ink)" stroke-width="1" stroke-dasharray="4 5" opacity="0.3"/>
  <line x1="100" y1="50" x2="142" y2="50" stroke="var(--ink)" stroke-width="1" stroke-dasharray="4 5" opacity="0.3"/>
  <text x="75" y="45" font-family="var(--mono)" font-size="9" fill="var(--ink-mute)" text-anchor="middle">d1</text>
  <text x="122" y="45" font-family="var(--mono)" font-size="9" fill="var(--ink-mute)" text-anchor="middle">d2</text>
  <text x="100" y="124" font-family="var(--mono)" font-size="10" fill="var(--ink-mute)" text-anchor="middle">M1 = M2</text>
</svg>
